<svg width="20" height="20" viewBox="0 0 20 20" fill="none" xmlns="http://www.w3.org/2000/svg">
<path d="M16.3609 6.66412C16.3717 6.80995 16.3717 6.95495 16.3717 7.09995C16.3717 11.5375 12.9942 16.6508 6.82169 16.6508C4.92002 16.6508 3.15335 16.1 1.66669 15.1433C1.93669 15.1741 2.19669 15.185 2.47752 15.185C4.04669 15.185 5.49085 14.655 6.64502 13.7508C5.16919 13.72 3.93252 12.7533 3.50585 11.4233C3.71335 11.4541 3.92169 11.475 4.14002 11.475C4.44085 11.475 4.74335 11.4333 5.02419 11.3608C3.48502 11.0491 2.33252 9.69829 2.33252 8.06662V8.02495C2.78002 8.27412 3.29919 8.42995 3.84919 8.45079C2.94502 7.84912 2.35252 6.81995 2.35252 5.65579C2.35252 5.03245 2.51835 4.46079 2.80919 3.96245C4.46169 5.99829 6.94585 7.32912 9.73085 7.47495C9.67919 7.22495 9.64752 6.96579 9.64752 6.70579C9.64752 4.85579 11.1442 3.34912 13.0042 3.34912C13.9709 3.34912 14.8434 3.75412 15.4567 4.40912C16.215 4.26329 16.9417 3.98245 17.5867 3.59829C17.3375 4.37745 16.8067 5.03245 16.1109 5.44829C16.7867 5.37495 17.4417 5.18829 18.0434 4.92829C17.5867 5.59329 17.0159 6.18579 16.3609 6.66412Z" fill="white"/>
</svg>
